<svg xmlns="http://www.w3.org/2000/svg" xmlns:xlink="http://www.w3.org/1999/xlink" contentStyleType="text/css" data-diagram-type="ACTIVITY" height="605px" preserveAspectRatio="none" style="width:286px;height:605px;background:#FFFFFF;" version="1.1" viewBox="0 0 286 605" width="286px" zoomAndPan="magnify"><title>Rust-on-MCU Quick Workflow</title><defs/><g><g class="title" data-source-line="1"><text fill="#000000" font-family="sans-serif" font-size="14" font-weight="bold" lengthAdjust="spacing" textLength="231.2939" x="26.1118" y="32.9951">Rust-on-MCU Quick Workflow</text></g><ellipse cx="143.2588" cy="57.2969" fill="#222222" rx="10" ry="10" style="stroke:#222222;stroke-width:1;"/><rect fill="#F1F1F1" height="33.9688" rx="12.5" ry="12.5" style="stroke:#181818;stroke-width:0.5;" width="161.9668" x="62.2754" y="135.6992"/><text fill="#000000" font-family="sans-serif" font-size="12" lengthAdjust="spacing" textLength="141.9668" x="72.2754" y="156.8379">Run `cargo xtask flash`</text><rect fill="#F1F1F1" height="33.9688" rx="12.5" ry="12.5" style="stroke:#181818;stroke-width:0.5;" width="171.1367" x="57.6904" y="204.668"/><text fill="#000000" font-family="sans-serif" font-size="12" lengthAdjust="spacing" textLength="151.1367" x="67.6904" y="225.8066">Press PROG on the board</text><polygon fill="#F1F1F1" points="83.5107,87.2969,203.0068,87.2969,215.0068,99.2969,203.0068,111.2969,83.5107,111.2969,71.5107,99.2969,83.5107,87.2969" style="stroke:#181818;stroke-width:0.5;"/><text fill="#000000" font-family="sans-serif" font-size="11" lengthAdjust="spacing" textLength="13.7017" x="147.2588" y="121.5073">no</text><text fill="#000000" font-family="sans-serif" font-size="11" lengthAdjust="spacing" textLength="119.4961" x="83.5107" y="103.105">MCU already flashed?</text><text fill="#000000" font-family="sans-serif" font-size="11" lengthAdjust="spacing" textLength="19.0083" x="215.0068" y="96.7026">yes</text><polygon fill="#F1F1F1" points="143.2588,258.6367,155.2588,270.6367,143.2588,282.6367,131.2588,270.6367,143.2588,258.6367" style="stroke:#181818;stroke-width:0.5;"/><rect fill="#F1F1F1" height="33.9688" rx="12.5" ry="12.5" style="stroke:#181818;stroke-width:0.5;" width="201.5" x="42.5088" y="302.6367"/><text fill="#000000" font-family="sans-serif" font-size="12" lengthAdjust="spacing" textLength="181.5" x="52.5088" y="323.7754">Edit `sw/program/src/main.rs`</text><rect fill="#F1F1F1" height="33.9688" rx="12.5" ry="12.5" style="stroke:#181818;stroke-width:0.5;" width="264.5176" x="11" y="356.6055"/><text fill="#000000" font-family="sans-serif" font-size="12" lengthAdjust="spacing" textLength="244.5176" x="21" y="377.7441">Run `cargo xtask upload &lt;COM_PORT&gt;`</text><rect fill="#F1F1F1" height="33.9688" rx="12.5" ry="12.5" style="stroke:#181818;stroke-width:0.5;" width="176.498" x="55.0098" y="410.5742"/><text fill="#000000" font-family="sans-serif" font-size="12" lengthAdjust="spacing" textLength="156.498" x="65.0098" y="431.7129">Build and upload program</text><rect fill="#F1F1F1" height="33.9688" rx="12.5" ry="12.5" style="stroke:#181818;stroke-width:0.5;" width="138.4941" x="74.0117" y="464.543"/><text fill="#000000" font-family="sans-serif" font-size="12" lengthAdjust="spacing" textLength="118.4941" x="84.0117" y="485.6816">MCU executes code</text><rect fill="#F1F1F1" height="33.9688" rx="12.5" ry="12.5" style="stroke:#181818;stroke-width:0.5;" width="191.416" x="47.5508" y="518.5117"/><text fill="#000000" font-family="sans-serif" font-size="12" lengthAdjust="spacing" textLength="171.416" x="57.5508" y="539.6504">Observe UART output / LEDs</text><ellipse cx="143.2588" cy="583.4805" fill="none" rx="11" ry="11" style="stroke:#222222;stroke-width:1;"/><ellipse cx="143.2588" cy="583.4805" fill="#222222" rx="6" ry="6" style="stroke:#222222;stroke-width:1;"/><line style="stroke:#181818;stroke-width:1;" x1="143.2588" x2="143.2588" y1="169.668" y2="204.668"/><polygon fill="#181818" points="139.2588,194.668,143.2588,204.668,147.2588,194.668,143.2588,198.668" style="stroke:#181818;stroke-width:1;"/><line style="stroke:#181818;stroke-width:1;" x1="143.2588" x2="143.2588" y1="111.2969" y2="135.6992"/><polygon fill="#181818" points="139.2588,125.6992,143.2588,135.6992,147.2588,125.6992,143.2588,129.6992" style="stroke:#181818;stroke-width:1;"/><line style="stroke:#181818;stroke-width:1;" x1="215.0068" x2="238.8271" y1="99.2969" y2="99.2969"/><polygon fill="#181818" points="234.8271,177.168,238.8271,187.168,242.8271,177.168,238.8271,181.168" style="stroke:#181818;stroke-width:1;"/><line style="stroke:#181818;stroke-width:1;" x1="238.8271" x2="238.8271" y1="99.2969" y2="270.6367"/><line style="stroke:#181818;stroke-width:1;" x1="238.8271" x2="155.2588" y1="270.6367" y2="270.6367"/><polygon fill="#181818" points="165.2588,266.6367,155.2588,270.6367,165.2588,274.6367,161.2588,270.6367" style="stroke:#181818;stroke-width:1;"/><line style="stroke:#181818;stroke-width:1;" x1="143.2588" x2="143.2588" y1="238.6367" y2="258.6367"/><polygon fill="#181818" points="139.2588,248.6367,143.2588,258.6367,147.2588,248.6367,143.2588,252.6367" style="stroke:#181818;stroke-width:1;"/><line style="stroke:#181818;stroke-width:1;" x1="143.2588" x2="143.2588" y1="67.2969" y2="87.2969"/><polygon fill="#181818" points="139.2588,77.2969,143.2588,87.2969,147.2588,77.2969,143.2588,81.2969" style="stroke:#181818;stroke-width:1;"/><line style="stroke:#181818;stroke-width:1;" x1="143.2588" x2="143.2588" y1="282.6367" y2="302.6367"/><polygon fill="#181818" points="139.2588,292.6367,143.2588,302.6367,147.2588,292.6367,143.2588,296.6367" style="stroke:#181818;stroke-width:1;"/><line style="stroke:#181818;stroke-width:1;" x1="143.2588" x2="143.2588" y1="336.6055" y2="356.6055"/><polygon fill="#181818" points="139.2588,346.6055,143.2588,356.6055,147.2588,346.6055,143.2588,350.6055" style="stroke:#181818;stroke-width:1;"/><line style="stroke:#181818;stroke-width:1;" x1="143.2588" x2="143.2588" y1="390.5742" y2="410.5742"/><polygon fill="#181818" points="139.2588,400.5742,143.2588,410.5742,147.2588,400.5742,143.2588,404.5742" style="stroke:#181818;stroke-width:1;"/><line style="stroke:#181818;stroke-width:1;" x1="143.2588" x2="143.2588" y1="444.543" y2="464.543"/><polygon fill="#181818" points="139.2588,454.543,143.2588,464.543,147.2588,454.543,143.2588,458.543" style="stroke:#181818;stroke-width:1;"/><line style="stroke:#181818;stroke-width:1;" x1="143.2588" x2="143.2588" y1="498.5117" y2="518.5117"/><polygon fill="#181818" points="139.2588,508.5117,143.2588,518.5117,147.2588,508.5117,143.2588,512.5117" style="stroke:#181818;stroke-width:1;"/><line style="stroke:#181818;stroke-width:1;" x1="143.2588" x2="143.2588" y1="552.4805" y2="572.4805"/><polygon fill="#181818" points="139.2588,562.4805,143.2588,572.4805,147.2588,562.4805,143.2588,566.4805" style="stroke:#181818;stroke-width:1;"/><!--SRC=[PP31JiCm44Jl_eev9eUIUuEAe5HSg996hJWIDzwqLbnlvBLf-_Sa0avSzyqyQJRQw0XDahXWlzYk3zWbsmtuu33qZgzAITGXAjiZcwbsWRIvetTQpcIUSiGpUMHtaboH4qBcELV0iaaURQV3YN6BMeQVIblEh0uaWhgfti1-Dk38EfXIaJUsLsgvCJQYbMin1Zu5VIaaTCL5M_yGP5BybwVHiJPuN5VRpxfgzgivzPAiCz3U_E5VsuJcBNIZBaKIT6nekbL7eV15E3mtUt2AOueeyBvvbNBw0e_V]--></g></svg>